<?xml version="1.0" encoding="utf-8"?>
<!-- Generator: Adobe Illustrator 23.0.1, SVG Export Plug-In . SVG Version: 6.00 Build 0)  -->
<svg version="1.1" id="Capa_1" xmlns="http://www.w3.org/2000/svg" xmlns:xlink="http://www.w3.org/1999/xlink" x="0px" y="0px"
	 viewBox="0 0 512 512" style="enable-background:new 0 0 512 512;" xml:space="preserve">
<style type="text/css">
	.st0{fill:#3A3A3A;stroke:#3A3A3A;stroke-width:9;stroke-miterlimit:10;}
	.st1{fill:url(#SVGID_1_);stroke:url(#SVGID_2_);stroke-width:9;stroke-miterlimit:10;}
	.st2{fill:url(#SVGID_3_);stroke:url(#SVGID_4_);stroke-width:9;stroke-miterlimit:10;}
	.st3{fill:url(#SVGID_5_);stroke:url(#SVGID_6_);stroke-width:9;stroke-miterlimit:10;}
	.st4{fill:url(#SVGID_7_);stroke:url(#SVGID_8_);stroke-width:9;stroke-miterlimit:10;}
	.st5{fill:url(#SVGID_9_);stroke:url(#SVGID_10_);stroke-width:9;stroke-miterlimit:10;}
	.st6{fill:url(#SVGID_11_);stroke:url(#SVGID_12_);stroke-width:9;stroke-miterlimit:10;}
	.st7{fill:url(#SVGID_13_);stroke:url(#SVGID_14_);stroke-width:9;stroke-miterlimit:10;}
	.st8{fill:url(#SVGID_15_);stroke:url(#SVGID_16_);stroke-width:9;stroke-miterlimit:10;}
	.st9{fill:url(#SVGID_17_);stroke:url(#SVGID_18_);stroke-width:9;stroke-miterlimit:10;}
	.st10{fill:url(#SVGID_19_);stroke:url(#SVGID_20_);stroke-width:9;stroke-miterlimit:10;}
	.st11{fill:url(#SVGID_21_);stroke:url(#SVGID_22_);stroke-width:9;stroke-miterlimit:10;}
	.st12{fill:url(#SVGID_23_);stroke:url(#SVGID_24_);stroke-width:9;stroke-miterlimit:10;}
	.st13{fill:url(#SVGID_25_);stroke:url(#SVGID_26_);stroke-width:9;stroke-miterlimit:10;}
	.st14{fill:url(#SVGID_27_);stroke:url(#SVGID_28_);stroke-width:9;stroke-miterlimit:10;}
	.st15{fill:url(#SVGID_29_);stroke:url(#SVGID_30_);stroke-width:9;stroke-miterlimit:10;}
</style>
<g>
	<g>
		<g>
			
				<rect x="211.3" y="315.6" transform="matrix(0.766 -0.6428 0.6428 0.766 -156.0758 215.3648)" class="st0" width="13" height="13"/>
		</g>
	</g>
	<g>
		<g>
			
				<rect x="228.1" y="335.6" transform="matrix(0.766 -0.6428 0.6428 0.766 -164.9971 230.817)" class="st0" width="13" height="13"/>
		</g>
	</g>
	<g>
		<g>
			
				<rect x="244.8" y="355.5" transform="matrix(0.766 -0.6428 0.6428 0.766 -173.9184 246.2692)" class="st0" width="13" height="13"/>
		</g>
	</g>
	<g>
		<g>
			
				<rect x="194.5" y="295.6" transform="matrix(0.766 -0.6428 0.6428 0.766 -147.1545 199.9126)" class="st0" width="13" height="13"/>
		</g>
	</g>
	<g>
		<g>
			
				<rect x="177.8" y="275.6" transform="matrix(0.766 -0.6428 0.6428 0.766 -138.2332 184.4604)" class="st0" width="13" height="13"/>
		</g>
	</g>
	<g>
		<g>
			
				<rect x="161" y="255.6" transform="matrix(0.766 -0.6428 0.6428 0.766 -129.3119 169.0083)" class="st0" width="13" height="13"/>
		</g>
	</g>
	<g>
		<g>
			
				<rect x="144.2" y="235.6" transform="matrix(0.766 -0.6428 0.6428 0.766 -120.3906 153.5561)" class="st0" width="13" height="13"/>
		</g>
	</g>
	<g>
		<g>
			
				<rect x="74.3" y="294.3" transform="matrix(0.766 -0.6428 0.6428 0.766 -174.4732 122.3315)" class="st0" width="13" height="13"/>
		</g>
	</g>
	<g>
		<g>
			<rect x="324.1" y="84.7" transform="matrix(0.766 -0.6428 0.6428 0.766 18.679 233.8479)" class="st0" width="13" height="13"/>
		</g>
	</g>
	<g>
		<g>
			
				<rect x="424.7" y="204.6" transform="matrix(0.766 -0.6428 0.6428 0.766 -34.8488 326.5611)" class="st0" width="13" height="13"/>
		</g>
	</g>
	<g>
		<g>
			
				<rect x="174.9" y="414.2" transform="matrix(0.766 -0.6428 0.6428 0.766 -228.0011 215.0446)" class="st0" width="13" height="13"/>
		</g>
	</g>
	<g>
		<g>
			<path class="st0" d="M379.9,109.5c2.8-2.3,3.1-6.4,0.8-9.2l-41.9-50c-2.3-2.8-6.4-3.1-9.2-0.8L39.9,292.6
				c-2.8,2.3-3.1,6.4-0.8,9.2l41.9,50c2.3,2.8,6.4,3.1,9.2,0.8c13.8-11.6,34.4-9.8,45.9,4s9.8,34.4-4,45.9c-2.8,2.3-3.1,6.4-0.8,9.2
				l41.9,50c2.3,2.8,6.4,3.1,9.2,0.8l289.7-243.1c2.8-2.3,3.1-6.4,0.8-9.2l-41.9-50c-2.3-2.8-6.4-3.1-9.2-0.8
				c-13.8,11.6-34.4,9.8-45.9-4C364.3,141.6,366.1,121,379.9,109.5z M370.4,168.5c15.1,13.5,37.3,15.5,54.5,4.8l33.8,40.3L179,448.3
				L145.2,408c16.8-18.8,15.2-47.6-3.6-64.5c-15.1-13.5-37.3-15.5-54.5-4.8l-33.8-40.3L333,63.7l33.8,40.3
				C350,122.8,351.6,151.7,370.4,168.5z"/>
		</g>
	</g>
	<g>
		<g>
			<path class="st0" d="M214.1,206c-11,9.3-12.5,25.7-3.2,36.7c9.3,11,25.7,12.5,36.7,3.2c11-9.3,12.5-25.7,3.2-36.7
				C241.6,198.2,225.1,196.8,214.1,206z M239.2,236c-5.5,4.6-13.7,3.9-18.4-1.6c-4.6-5.5-3.9-13.7,1.6-18.4s13.7-3.9,18.4,1.6
				C245.5,223.2,244.8,231.4,239.2,236z"/>
		</g>
	</g>
	<g>
		<g>
			<path class="st0" d="M324.3,215.7c-11,9.3-12.5,25.7-3.2,36.7s25.7,12.5,36.7,3.2s12.5-25.7,3.2-36.7
				C351.8,207.9,335.4,206.4,324.3,215.7z M349.5,245.7c-5.5,4.6-13.7,3.9-18.4-1.6c-4.6-5.5-3.9-13.7,1.6-18.4
				c5.5-4.6,13.7-3.9,18.4,1.6C355.7,232.8,355,241,349.5,245.7z"/>
		</g>
	</g>
	<g>
		<g>
			
				<rect x="212.2" y="224.3" transform="matrix(8.715539e-02 -0.9962 0.9962 8.715539e-02 31.0786 495.5952)" class="st0" width="147.6" height="13"/>
		</g>
	</g>
</g>
<g>
	<g>
		<g>
			
				<linearGradient id="SVGID_1_" gradientUnits="userSpaceOnUse" x1="-456.6004" y1="258.4462" x2="-440.1451" y2="258.4462" gradientTransform="matrix(0.5277 -0.8494 0.8494 0.5277 -393.1643 -195.153)">
				<stop  offset="0" style="stop-color:#845EC2"/>
				<stop  offset="0.5" style="stop-color:#D65DB1"/>
				<stop  offset="1" style="stop-color:#FF9671"/>
			</linearGradient>
			
				<linearGradient id="SVGID_2_" gradientUnits="userSpaceOnUse" x1="-462.2781" y1="258.4462" x2="-434.4674" y2="258.4462" gradientTransform="matrix(0.5277 -0.8494 0.8494 0.5277 -393.1643 -195.153)">
				<stop  offset="0" style="stop-color:#845EC2"/>
				<stop  offset="0.5" style="stop-color:#D65DB1"/>
				<stop  offset="1" style="stop-color:#FF9671"/>
			</linearGradient>
			<polygon class="st1" points="-419.5,321.3 -409.5,312.9 -401.1,322.9 -411.1,331.3 			"/>
		</g>
	</g>
	<g>
		<g>
			
				<linearGradient id="SVGID_3_" gradientUnits="userSpaceOnUse" x1="-464.7243" y1="283.233" x2="-448.269" y2="283.233" gradientTransform="matrix(0.5277 -0.8494 0.8494 0.5277 -393.1643 -195.153)">
				<stop  offset="0" style="stop-color:#845EC2"/>
				<stop  offset="0.5" style="stop-color:#D65DB1"/>
				<stop  offset="1" style="stop-color:#FF9671"/>
			</linearGradient>
			
				<linearGradient id="SVGID_4_" gradientUnits="userSpaceOnUse" x1="-470.402" y1="283.233" x2="-442.5913" y2="283.233" gradientTransform="matrix(0.5277 -0.8494 0.8494 0.5277 -393.1643 -195.153)">
				<stop  offset="0" style="stop-color:#845EC2"/>
				<stop  offset="0.5" style="stop-color:#D65DB1"/>
				<stop  offset="1" style="stop-color:#FF9671"/>
			</linearGradient>
			<polygon class="st2" points="-402.7,341.3 -392.7,332.9 -384.3,342.9 -394.3,351.3 			"/>
		</g>
	</g>
	<g>
		<g>
			
				<linearGradient id="SVGID_5_" gradientUnits="userSpaceOnUse" x1="-472.8482" y1="308.0198" x2="-456.3929" y2="308.0198" gradientTransform="matrix(0.5277 -0.8494 0.8494 0.5277 -393.1643 -195.153)">
				<stop  offset="0" style="stop-color:#845EC2"/>
				<stop  offset="0.5" style="stop-color:#D65DB1"/>
				<stop  offset="1" style="stop-color:#FF9671"/>
			</linearGradient>
			
				<linearGradient id="SVGID_6_" gradientUnits="userSpaceOnUse" x1="-478.5259" y1="308.0198" x2="-450.7151" y2="308.0198" gradientTransform="matrix(0.5277 -0.8494 0.8494 0.5277 -393.1643 -195.153)">
				<stop  offset="0" style="stop-color:#845EC2"/>
				<stop  offset="0.5" style="stop-color:#D65DB1"/>
				<stop  offset="1" style="stop-color:#FF9671"/>
			</linearGradient>
			<polygon class="st3" points="-385.9,361.2 -375.9,352.9 -367.5,362.9 -377.5,371.2 			"/>
		</g>
	</g>
	<g>
		<g>
			
				<linearGradient id="SVGID_7_" gradientUnits="userSpaceOnUse" x1="-448.4766" y1="233.6593" x2="-432.0212" y2="233.6593" gradientTransform="matrix(0.5277 -0.8494 0.8494 0.5277 -393.1643 -195.153)">
				<stop  offset="0" style="stop-color:#845EC2"/>
				<stop  offset="0.5" style="stop-color:#D65DB1"/>
				<stop  offset="1" style="stop-color:#FF9671"/>
			</linearGradient>
			
				<linearGradient id="SVGID_8_" gradientUnits="userSpaceOnUse" x1="-454.1543" y1="233.6593" x2="-426.3435" y2="233.6593" gradientTransform="matrix(0.5277 -0.8494 0.8494 0.5277 -393.1643 -195.153)">
				<stop  offset="0" style="stop-color:#845EC2"/>
				<stop  offset="0.5" style="stop-color:#D65DB1"/>
				<stop  offset="1" style="stop-color:#FF9671"/>
			</linearGradient>
			<polygon class="st4" points="-436.2,301.3 -426.2,292.9 -417.8,302.9 -427.8,311.3 			"/>
		</g>
	</g>
	<g>
		<g>
			
				<linearGradient id="SVGID_9_" gradientUnits="userSpaceOnUse" x1="-440.3527" y1="208.8725" x2="-423.8973" y2="208.8725" gradientTransform="matrix(0.5277 -0.8494 0.8494 0.5277 -393.1643 -195.153)">
				<stop  offset="0" style="stop-color:#845EC2"/>
				<stop  offset="0.5" style="stop-color:#D65DB1"/>
				<stop  offset="1" style="stop-color:#FF9671"/>
			</linearGradient>
			
				<linearGradient id="SVGID_10_" gradientUnits="userSpaceOnUse" x1="-446.0304" y1="208.8725" x2="-418.2196" y2="208.8725" gradientTransform="matrix(0.5277 -0.8494 0.8494 0.5277 -393.1643 -195.153)">
				<stop  offset="0" style="stop-color:#845EC2"/>
				<stop  offset="0.5" style="stop-color:#D65DB1"/>
				<stop  offset="1" style="stop-color:#FF9671"/>
			</linearGradient>
			<polygon class="st5" points="-453,281.3 -443,272.9 -434.6,282.9 -444.6,291.3 			"/>
		</g>
	</g>
	<g>
		<g>
			
				<linearGradient id="SVGID_11_" gradientUnits="userSpaceOnUse" x1="-432.2288" y1="184.0857" x2="-415.7735" y2="184.0857" gradientTransform="matrix(0.5277 -0.8494 0.8494 0.5277 -393.1643 -195.153)">
				<stop  offset="0" style="stop-color:#845EC2"/>
				<stop  offset="0.5" style="stop-color:#D65DB1"/>
				<stop  offset="1" style="stop-color:#FF9671"/>
			</linearGradient>
			
				<linearGradient id="SVGID_12_" gradientUnits="userSpaceOnUse" x1="-437.9065" y1="184.0857" x2="-410.0958" y2="184.0857" gradientTransform="matrix(0.5277 -0.8494 0.8494 0.5277 -393.1643 -195.153)">
				<stop  offset="0" style="stop-color:#845EC2"/>
				<stop  offset="0.5" style="stop-color:#D65DB1"/>
				<stop  offset="1" style="stop-color:#FF9671"/>
			</linearGradient>
			<polygon class="st6" points="-469.8,261.3 -459.8,253 -451.4,262.9 -461.4,271.3 			"/>
		</g>
	</g>
	<g>
		<g>
			
				<linearGradient id="SVGID_13_" gradientUnits="userSpaceOnUse" x1="-424.1049" y1="159.2988" x2="-407.6496" y2="159.2988" gradientTransform="matrix(0.5277 -0.8494 0.8494 0.5277 -393.1643 -195.153)">
				<stop  offset="0" style="stop-color:#845EC2"/>
				<stop  offset="0.5" style="stop-color:#D65DB1"/>
				<stop  offset="1" style="stop-color:#FF9671"/>
			</linearGradient>
			
				<linearGradient id="SVGID_14_" gradientUnits="userSpaceOnUse" x1="-429.7827" y1="159.2988" x2="-401.9719" y2="159.2988" gradientTransform="matrix(0.5277 -0.8494 0.8494 0.5277 -393.1643 -195.153)">
				<stop  offset="0" style="stop-color:#845EC2"/>
				<stop  offset="0.5" style="stop-color:#D65DB1"/>
				<stop  offset="1" style="stop-color:#FF9671"/>
			</linearGradient>
			<polygon class="st7" points="-486.5,241.4 -476.5,233 -468.1,243 -478.1,251.4 			"/>
		</g>
	</g>
	<g>
		<g>
			
				<linearGradient id="SVGID_15_" gradientUnits="userSpaceOnUse" x1="-510.8589" y1="130.8653" x2="-494.4035" y2="130.8653" gradientTransform="matrix(0.5277 -0.8494 0.8494 0.5277 -393.1643 -195.153)">
				<stop  offset="0" style="stop-color:#845EC2"/>
				<stop  offset="0.5" style="stop-color:#D65DB1"/>
				<stop  offset="1" style="stop-color:#FF9671"/>
			</linearGradient>
			
				<linearGradient id="SVGID_16_" gradientUnits="userSpaceOnUse" x1="-516.5366" y1="130.8653" x2="-488.7258" y2="130.8653" gradientTransform="matrix(0.5277 -0.8494 0.8494 0.5277 -393.1643 -195.153)">
				<stop  offset="0" style="stop-color:#845EC2"/>
				<stop  offset="0.5" style="stop-color:#D65DB1"/>
				<stop  offset="1" style="stop-color:#FF9671"/>
			</linearGradient>
			<polygon class="st8" points="-556.5,300 -546.5,291.7 -538.1,301.7 -548.1,310 			"/>
		</g>
	</g>
	<g>
		<g>
			
				<linearGradient id="SVGID_17_" gradientUnits="userSpaceOnUse" x1="-201.0235" y1="232.4137" x2="-184.5681" y2="232.4137" gradientTransform="matrix(0.5277 -0.8494 0.8494 0.5277 -393.1643 -195.153)">
				<stop  offset="0" style="stop-color:#845EC2"/>
				<stop  offset="0.5" style="stop-color:#D65DB1"/>
				<stop  offset="1" style="stop-color:#FF9671"/>
			</linearGradient>
			
				<linearGradient id="SVGID_18_" gradientUnits="userSpaceOnUse" x1="-206.7012" y1="232.4137" x2="-178.8904" y2="232.4137" gradientTransform="matrix(0.5277 -0.8494 0.8494 0.5277 -393.1643 -195.153)">
				<stop  offset="0" style="stop-color:#845EC2"/>
				<stop  offset="0.5" style="stop-color:#D65DB1"/>
				<stop  offset="1" style="stop-color:#FF9671"/>
			</linearGradient>
			<polygon class="st9" points="-306.7,90.5 -296.7,82.1 -288.3,92.1 -298.3,100.5 			"/>
		</g>
	</g>
	<g>
		<g>
			
				<linearGradient id="SVGID_19_" gradientUnits="userSpaceOnUse" x1="-249.7667" y1="381.1347" x2="-233.3114" y2="381.1347" gradientTransform="matrix(0.5277 -0.8494 0.8494 0.5277 -393.1643 -195.153)">
				<stop  offset="0" style="stop-color:#845EC2"/>
				<stop  offset="0.5" style="stop-color:#D65DB1"/>
				<stop  offset="1" style="stop-color:#FF9671"/>
			</linearGradient>
			
				<linearGradient id="SVGID_20_" gradientUnits="userSpaceOnUse" x1="-255.4444" y1="381.1347" x2="-227.6337" y2="381.1347" gradientTransform="matrix(0.5277 -0.8494 0.8494 0.5277 -393.1643 -195.153)">
				<stop  offset="0" style="stop-color:#845EC2"/>
				<stop  offset="0.5" style="stop-color:#D65DB1"/>
				<stop  offset="1" style="stop-color:#FF9671"/>
			</linearGradient>
			<polygon class="st10" points="-206.1,210.3 -196.1,202 -187.7,212 -197.7,220.3 			"/>
		</g>
	</g>
	<g>
		<g>
			
				<linearGradient id="SVGID_21_" gradientUnits="userSpaceOnUse" x1="-559.6021" y1="279.5863" x2="-543.1467" y2="279.5863" gradientTransform="matrix(0.5277 -0.8494 0.8494 0.5277 -393.1643 -195.153)">
				<stop  offset="0" style="stop-color:#845EC2"/>
				<stop  offset="0.5" style="stop-color:#D65DB1"/>
				<stop  offset="1" style="stop-color:#FF9671"/>
			</linearGradient>
			
				<linearGradient id="SVGID_22_" gradientUnits="userSpaceOnUse" x1="-565.2798" y1="279.5863" x2="-537.4691" y2="279.5863" gradientTransform="matrix(0.5277 -0.8494 0.8494 0.5277 -393.1643 -195.153)">
				<stop  offset="0" style="stop-color:#845EC2"/>
				<stop  offset="0.5" style="stop-color:#D65DB1"/>
				<stop  offset="1" style="stop-color:#FF9671"/>
			</linearGradient>
			<polygon class="st11" points="-455.9,419.9 -445.9,411.5 -437.5,421.5 -447.5,429.9 			"/>
		</g>
	</g>
	<g>
		<g>
			
				<linearGradient id="SVGID_23_" gradientUnits="userSpaceOnUse" x1="-590.8079" y1="256" x2="-153.3623" y2="256" gradientTransform="matrix(0.5277 -0.8494 0.8494 0.5277 -393.1643 -195.153)">
				<stop  offset="0" style="stop-color:#845EC2"/>
				<stop  offset="0.5" style="stop-color:#D65DB1"/>
				<stop  offset="1" style="stop-color:#FF9671"/>
			</linearGradient>
			
				<linearGradient id="SVGID_24_" gradientUnits="userSpaceOnUse" x1="-595.3079" y1="256" x2="-148.8623" y2="256" gradientTransform="matrix(0.5277 -0.8494 0.8494 0.5277 -393.1643 -195.153)">
				<stop  offset="0" style="stop-color:#845EC2"/>
				<stop  offset="0.5" style="stop-color:#D65DB1"/>
				<stop  offset="1" style="stop-color:#FF9671"/>
			</linearGradient>
			<path class="st12" d="M-248.2,109.5c2.8-2.3,3.1-6.4,0.8-9.2l-41.9-50c-2.3-2.8-6.4-3.1-9.2-0.8l-289.7,243.1
				c-2.8,2.3-3.1,6.4-0.8,9.2l41.9,50c2.3,2.8,6.4,3.1,9.2,0.8c13.8-11.6,34.4-9.8,45.9,4c11.6,13.8,9.8,34.4-4,45.9
				c-2.8,2.3-3.1,6.4-0.8,9.2l41.9,50c2.3,2.8,6.4,3.1,9.2,0.8L-156,219.4c2.8-2.3,3.1-6.4,0.8-9.2l-41.9-50
				c-2.3-2.8-6.4-3.1-9.2-0.8c-13.8,11.6-34.4,9.8-45.9-4S-262,121-248.2,109.5z M-257.7,168.5c15.1,13.5,37.3,15.5,54.5,4.8
				l33.8,40.3l-279.7,234.7l-33.8-40.3c16.8-18.8,15.2-47.6-3.6-64.5c-15.1-13.5-37.3-15.5-54.5-4.8l-33.8-40.3l279.7-234.7
				l33.8,40.3C-278.1,122.8-276.5,151.7-257.7,168.5z"/>
		</g>
	</g>
	<g>
		<g>
			
				<linearGradient id="SVGID_25_" gradientUnits="userSpaceOnUse" x1="-385.9905" y1="218.8197" x2="-333.8081" y2="218.8197" gradientTransform="matrix(0.5277 -0.8494 0.8494 0.5277 -393.1643 -195.153)">
				<stop  offset="0" style="stop-color:#845EC2"/>
				<stop  offset="0.5" style="stop-color:#D65DB1"/>
				<stop  offset="1" style="stop-color:#FF9671"/>
			</linearGradient>
			
				<linearGradient id="SVGID_26_" gradientUnits="userSpaceOnUse" x1="-390.4905" y1="218.8197" x2="-329.3081" y2="218.8197" gradientTransform="matrix(0.5277 -0.8494 0.8494 0.5277 -393.1643 -195.153)">
				<stop  offset="0" style="stop-color:#845EC2"/>
				<stop  offset="0.5" style="stop-color:#D65DB1"/>
				<stop  offset="1" style="stop-color:#FF9671"/>
			</linearGradient>
			<path class="st13" d="M-414,206c-11,9.3-12.5,25.7-3.2,36.7c9.3,11,25.7,12.5,36.7,3.2c11-9.3,12.5-25.7,3.2-36.7
				C-386.5,198.2-403,196.8-414,206z M-388.9,236c-5.5,4.6-13.7,3.9-18.4-1.6c-4.6-5.5-3.9-13.7,1.6-18.4s13.7-3.9,18.4,1.6
				C-382.6,223.2-383.3,231.4-388.9,236z"/>
		</g>
	</g>
	<g>
		<g>
			
				<linearGradient id="SVGID_27_" gradientUnits="userSpaceOnUse" x1="-336.0016" y1="317.5519" x2="-283.8192" y2="317.5519" gradientTransform="matrix(0.5277 -0.8494 0.8494 0.5277 -393.1643 -195.153)">
				<stop  offset="0" style="stop-color:#845EC2"/>
				<stop  offset="0.5" style="stop-color:#D65DB1"/>
				<stop  offset="1" style="stop-color:#FF9671"/>
			</linearGradient>
			
				<linearGradient id="SVGID_28_" gradientUnits="userSpaceOnUse" x1="-340.5016" y1="317.5519" x2="-279.3192" y2="317.5519" gradientTransform="matrix(0.5277 -0.8494 0.8494 0.5277 -393.1643 -195.153)">
				<stop  offset="0" style="stop-color:#845EC2"/>
				<stop  offset="0.5" style="stop-color:#D65DB1"/>
				<stop  offset="1" style="stop-color:#FF9671"/>
			</linearGradient>
			<path class="st14" d="M-303.8,215.7c-11,9.3-12.5,25.7-3.2,36.7c9.3,11,25.7,12.5,36.7,3.2c11-9.3,12.5-25.7,3.2-36.7
				C-276.3,207.9-292.7,206.4-303.8,215.7z M-278.6,245.7c-5.5,4.6-13.7,3.9-18.4-1.6c-4.6-5.5-3.9-13.7,1.6-18.4
				c5.5-4.6,13.7-3.9,18.4,1.6C-272.4,232.8-273.1,241-278.6,245.7z"/>
		</g>
	</g>
	<g>
		<g>
			
				<linearGradient id="SVGID_29_" gradientUnits="userSpaceOnUse" x1="-403.6664" y1="268.172" x2="-266.1354" y2="268.172" gradientTransform="matrix(0.5277 -0.8494 0.8494 0.5277 -393.1643 -195.153)">
				<stop  offset="0" style="stop-color:#845EC2"/>
				<stop  offset="0.5" style="stop-color:#D65DB1"/>
				<stop  offset="1" style="stop-color:#FF9671"/>
			</linearGradient>
			
				<linearGradient id="SVGID_30_" gradientUnits="userSpaceOnUse" x1="-409.7139" y1="268.172" x2="-260.088" y2="268.172" gradientTransform="matrix(0.5277 -0.8494 0.8494 0.5277 -393.1643 -195.153)">
				<stop  offset="0" style="stop-color:#845EC2"/>
				<stop  offset="0.5" style="stop-color:#D65DB1"/>
				<stop  offset="1" style="stop-color:#FF9671"/>
			</linearGradient>
			<polygon class="st15" points="-355,303.8 -342.2,156.8 -329.2,157.9 -342.1,304.9 			"/>
		</g>
	</g>
</g>
</svg>
